<svg width="235" height="928" viewBox="0 0 235 928" fill="none" xmlns="http://www.w3.org/2000/svg">
<g style="mix-blend-mode:multiply">
<path d="M203.69 820.131C203.69 840.127 199.251 857.387 190.374 871.913C181.408 886.35 169.123 897.513 153.521 905.404C137.919 913.205 120.121 917.105 100.125 917.105C80.1293 917.105 62.3305 913.205 46.7285 905.404C31.1265 897.513 18.887 886.35 10.01 871.913C1.04332 857.387 -3.44001 840.127 -3.44001 820.131C-3.44001 811.792 -2.00534 804.081 0.863995 796.997C3.73332 789.913 7.81316 783.637 13.1035 778.167L-0.750016 753.419V752.881H58.43V753.688C46.863 756.737 36.5065 761.354 27.3605 767.541C18.2145 773.639 11.0412 780.947 5.84049 789.465C0.550153 797.983 -2.09501 807.309 -2.09501 817.441C-2.09501 827.484 0.90882 835.912 6.91649 842.727C12.8345 849.452 20.77 854.787 30.723 858.732C40.5863 862.678 51.5705 865.547 63.6755 867.34C75.6908 869.044 87.8407 869.896 100.125 869.896C112.32 869.896 124.469 869.044 136.574 867.34C148.679 865.547 159.708 862.678 169.661 858.732C179.525 854.787 187.46 849.452 193.468 842.727C199.386 835.912 202.345 827.484 202.345 817.441C202.345 808.295 200.776 800.046 197.637 792.693C194.409 785.34 190.016 778.884 184.456 773.325C178.807 767.676 172.351 763.013 165.088 759.337C157.736 755.571 149.98 752.746 141.82 750.863V750.191H201V750.729L185.667 773.19C191.226 778.929 195.62 785.744 198.848 793.634C202.076 801.525 203.69 810.357 203.69 820.131ZM-0.750016 557.272H-0.212007L-0.212007 581.616H200.462V557.272H201V647.387H200.462V623.311H101.739L101.739 695.941H200.462V671.597H201V761.846H200.462V737.636H-0.212007V761.846H-0.750016V671.597H-0.212007V695.941H101.201L101.201 623.311H-0.212007V647.387H-0.750016L-0.750016 557.272ZM203.69 477.387C203.69 491.644 201.09 504.466 195.889 515.854C190.688 527.152 183.38 536.746 173.965 544.637C164.55 552.528 153.566 558.58 141.013 562.795C128.46 566.919 114.83 568.982 100.125 568.982C85.4197 568.982 71.7903 566.785 59.237 562.391C46.6837 557.997 35.6995 551.766 26.2845 543.696C16.8695 535.536 9.56166 525.852 4.361 514.644C-0.839676 503.435 -3.44001 491.016 -3.44001 477.387C-3.44001 463.668 -0.839676 451.249 4.361 440.131C9.56166 428.922 16.8695 419.283 26.2845 411.213C35.6995 403.053 46.6837 396.822 59.237 392.518C71.7903 388.124 85.4197 385.927 100.125 385.927C114.83 385.927 128.46 387.989 141.013 392.114C153.566 396.239 164.55 402.246 173.965 410.137C183.38 418.028 190.688 427.622 195.889 438.92C201.09 450.218 203.69 463.04 203.69 477.387ZM203.152 477.387C203.152 467.972 200.462 460.395 195.082 454.657C189.612 448.828 182.125 444.345 172.62 441.207C163.026 438.068 152.042 435.961 139.668 434.885C127.204 433.719 114.023 433.137 100.125 433.137C86.137 433.137 72.956 433.854 60.582 435.289C48.208 436.634 37.2687 438.965 27.764 442.283C18.1697 445.6 10.6825 450.128 5.30249 455.867C-0.167171 461.516 -2.902 468.689 -2.902 477.387C-2.902 485.995 -0.167171 493.213 5.30249 499.042C10.6825 504.78 18.1697 509.308 27.764 512.626C37.2687 515.944 48.208 518.32 60.582 519.755C72.956 521.1 86.137 521.772 100.125 521.772C114.023 521.772 127.204 521.234 139.668 520.158C152.042 518.992 162.981 516.84 172.486 513.702C181.991 510.564 189.478 506.08 194.947 500.252C200.417 494.334 203.152 486.712 203.152 477.387ZM-0.750016 304.63C-0.750016 287.504 1.53648 273.516 6.10948 262.666C10.6825 251.727 17.1833 243.657 25.612 238.456C34.0407 233.166 44.0833 230.521 55.74 230.521C67.3967 230.521 77.26 233.166 85.33 238.456C93.3103 243.657 99.4077 251.727 103.622 262.666C107.747 273.516 109.809 287.504 109.809 304.63V331.396H200.462V307.32H201V397.435H200.462V373.225H-0.212007V397.435H-0.750016L-0.750016 304.63ZM109.271 331.396V310.01C109.271 304.182 107.657 299.161 104.429 294.946C101.111 290.732 96.8073 287.28 91.517 284.59C86.137 281.81 80.3535 279.748 74.1665 278.403C67.8898 277.058 61.7477 276.385 55.74 276.385C49.7323 276.385 43.5005 277.058 37.0445 278.403C30.4988 279.748 24.4015 281.81 18.7525 284.59C13.1035 287.28 8.53049 290.732 5.0335 294.946C1.53649 299.161 -0.212007 304.182 -0.212007 310.01V331.396H109.271ZM201 242.813H200.462V213.223H-0.212007V242.813H-0.750016V139.113H-0.212007V171.393H200.462V139.113H201V242.813ZM-0.750016 130.11H200.462V98.9063H201V157.279H200.462V130.648H-0.212007V157.279H-0.750016V130.11ZM-0.750016 -35.0557H-0.212007V-6.81073H203.69V-6.27274L-0.750016 130.379L-0.750016 80.6143L132.539 -6.27274H-0.212007V24.6623H-0.750016V-35.0557Z" fill="#19383D"/>
</g>
<path d="M3 206V178.52H24.08V184.12H10.16V190.04H22.4V195.52H10.16V206H3ZM30.625 206V178.52H46.585C48.6117 178.52 50.305 178.907 51.665 179.68C53.025 180.427 54.0383 181.467 54.705 182.8C55.3983 184.107 55.745 185.573 55.745 187.2C55.745 188.96 55.3317 190.533 54.505 191.92C53.705 193.28 52.5717 194.347 51.105 195.12L56.625 206H48.625L44.065 196.32H37.785V206H30.625ZM37.785 191H45.185C46.1717 191 46.9583 190.68 47.545 190.04C48.1583 189.373 48.465 188.493 48.465 187.4C48.465 186.68 48.3317 186.067 48.065 185.56C47.7983 185.053 47.425 184.667 46.945 184.4C46.465 184.107 45.8783 183.96 45.185 183.96H37.785V191ZM62.705 206V178.52H85.385V184.12H69.865V189.28H83.425V194.76H69.865V200.4H85.665V206H62.705ZM92.5938 206V178.52H104.074C107.06 178.52 109.58 179.013 111.634 180C113.714 180.987 115.287 182.493 116.354 184.52C117.447 186.52 117.994 189.093 117.994 192.24C117.994 195.36 117.447 197.947 116.354 200C115.287 202.027 113.714 203.533 111.634 204.52C109.58 205.507 107.06 206 104.074 206H92.5938ZM99.7538 200.4H103.994C105.114 200.4 106.087 200.24 106.914 199.92C107.74 199.6 108.434 199.133 108.994 198.52C109.554 197.907 109.967 197.147 110.234 196.24C110.5 195.333 110.634 194.293 110.634 193.12V191.44C110.634 190.24 110.5 189.187 110.234 188.28C109.967 187.373 109.554 186.613 108.994 186C108.434 185.387 107.74 184.92 106.914 184.6C106.087 184.28 105.114 184.12 103.994 184.12H99.7538V200.4ZM124.789 206V178.52H140.749C142.776 178.52 144.469 178.907 145.829 179.68C147.189 180.427 148.202 181.467 148.869 182.8C149.562 184.107 149.909 185.573 149.909 187.2C149.909 188.96 149.496 190.533 148.669 191.92C147.869 193.28 146.736 194.347 145.269 195.12L150.789 206H142.789L138.229 196.32H131.949V206H124.789ZM131.949 191H139.349C140.336 191 141.122 190.68 141.709 190.04C142.322 189.373 142.629 188.493 142.629 187.4C142.629 186.68 142.496 186.067 142.229 185.56C141.962 185.053 141.589 184.667 141.109 184.4C140.629 184.107 140.042 183.96 139.349 183.96H131.949V191ZM156.789 206V178.52H163.949V206H156.789ZM184.593 206.48C181.633 206.48 179.113 205.973 177.033 204.96C174.98 203.92 173.42 202.347 172.353 200.24C171.286 198.133 170.753 195.467 170.753 192.24C170.753 187.493 171.94 183.947 174.313 181.6C176.713 179.227 180.14 178.04 184.593 178.04C187.073 178.04 189.273 178.467 191.193 179.32C193.113 180.147 194.606 181.4 195.673 183.08C196.766 184.733 197.313 186.8 197.313 189.28H190.313C190.313 188.107 190.073 187.107 189.593 186.28C189.14 185.427 188.486 184.773 187.633 184.32C186.806 183.867 185.793 183.64 184.593 183.64C183.1 183.64 181.873 183.947 180.913 184.56C179.953 185.173 179.246 186.053 178.793 187.2C178.34 188.347 178.113 189.733 178.113 191.36V193.16C178.113 194.787 178.34 196.187 178.793 197.36C179.246 198.507 179.94 199.387 180.873 200C181.833 200.587 183.06 200.88 184.553 200.88C185.833 200.88 186.913 200.667 187.793 200.24C188.7 199.813 189.38 199.187 189.833 198.36C190.313 197.507 190.553 196.493 190.553 195.32H197.313C197.313 197.8 196.78 199.867 195.713 201.52C194.673 203.173 193.193 204.413 191.273 205.24C189.38 206.067 187.153 206.48 184.593 206.48Z" fill="#EAE5C7"/>
</svg>
