<svg width="241" height="924" viewBox="0 0 241 924" fill="none" xmlns="http://www.w3.org/2000/svg">
<path d="M204.65 817.735C204.65 837.433 200.277 854.437 191.532 868.747C182.699 882.969 170.597 893.967 155.227 901.74C139.857 909.425 122.323 913.267 102.625 913.267C82.9267 913.267 65.3925 909.425 50.0225 901.74C34.6525 893.967 22.595 882.969 13.85 868.747C5.01665 854.437 0.599987 837.433 0.599987 817.735C0.599987 809.52 2.01332 801.923 4.84 794.945C7.66666 787.967 11.6858 781.783 16.8975 776.395L3.24998 752.015V751.485H61.55V752.28C50.155 755.283 39.9525 759.832 30.9425 765.927C21.9325 771.934 14.8658 779.133 9.74249 787.525C4.53082 795.917 1.92499 805.103 1.92499 815.085C1.92499 824.978 4.88415 833.282 10.8025 839.995C16.6325 846.62 24.45 851.876 34.255 855.762C43.9717 859.649 54.7925 862.476 66.7175 864.242C78.5542 865.921 90.5233 866.76 102.625 866.76C114.638 866.76 126.607 865.921 138.532 864.242C150.457 862.476 161.322 859.649 171.127 855.762C180.844 851.876 188.662 846.62 194.58 839.995C200.41 833.282 203.325 824.978 203.325 815.085C203.325 806.075 201.779 797.948 198.687 790.705C195.507 783.462 191.179 777.102 185.702 771.625C180.137 766.06 173.777 761.467 166.622 757.845C159.379 754.135 151.738 751.352 143.7 749.497V748.835H202V749.365L186.895 771.492C192.372 777.146 196.7 783.859 199.88 791.632C203.06 799.406 204.65 808.107 204.65 817.735ZM3.24998 558.784H3.77999L3.77999 582.767H201.47V558.784H202V647.559H201.47V623.842H104.215L104.215 695.392H201.47V671.409H202V760.317H201.47V736.467H3.77999V760.317H3.24998V671.409H3.77999V695.392H103.685L103.685 623.842H3.77999V647.559H3.24998L3.24998 558.784ZM204.65 480.088C204.65 494.133 202.088 506.764 196.965 517.983C191.842 529.113 184.642 538.564 175.367 546.338C166.092 554.111 155.272 560.074 142.905 564.225C130.538 568.289 117.112 570.32 102.625 570.32C88.1383 570.32 74.7117 568.156 62.345 563.828C49.9783 559.499 39.1575 553.36 29.8825 545.41C20.6075 537.372 13.4083 527.832 8.285 516.79C3.16166 505.749 0.599987 493.514 0.599987 480.088C0.599987 466.573 3.16166 454.339 8.285 443.385C13.4083 432.344 20.6075 422.848 29.8825 414.898C39.1575 406.859 49.9783 400.72 62.345 396.48C74.7117 392.152 88.1383 389.988 102.625 389.988C117.112 389.988 130.538 392.019 142.905 396.083C155.272 400.146 166.092 406.064 175.367 413.838C184.642 421.611 191.842 431.063 196.965 442.193C202.088 453.323 204.65 465.954 204.65 480.088ZM204.12 480.088C204.12 470.813 201.47 463.349 196.17 457.695C190.782 451.954 183.406 447.537 174.042 444.445C164.591 441.354 153.77 439.278 141.58 438.218C129.302 437.069 116.317 436.495 102.625 436.495C88.845 436.495 75.86 437.202 63.67 438.615C51.48 439.94 40.7033 442.237 31.34 445.505C21.8883 448.774 14.5125 453.234 9.21249 458.888C3.82416 464.453 1.13 471.519 1.13 480.088C1.13 488.568 3.82416 495.679 9.21249 501.42C14.5125 507.074 21.8883 511.534 31.34 514.803C40.7033 518.071 51.48 520.412 63.67 521.825C75.86 523.15 88.845 523.813 102.625 523.813C116.317 523.813 129.302 523.283 141.58 522.223C153.77 521.074 164.547 518.954 173.91 515.863C183.273 512.771 190.649 508.354 196.037 502.613C201.426 496.783 204.12 489.274 204.12 480.088ZM3.24998 309.9C3.24998 293.028 5.50248 279.248 10.0075 268.56C14.5125 257.783 20.9167 249.833 29.22 244.71C37.5233 239.498 47.4167 236.892 58.9 236.892C70.3833 236.892 80.1 239.498 88.05 244.71C95.9117 249.833 101.918 257.783 106.07 268.56C110.133 279.248 112.165 293.028 112.165 309.9V336.267H201.47V312.55H202V401.325H201.47V377.475H3.77999V401.325H3.24998L3.24998 309.9ZM111.635 336.267V315.2C111.635 309.458 110.045 304.511 106.865 300.36C103.597 296.208 99.3567 292.807 94.145 290.157C88.845 287.419 83.1475 285.387 77.0525 284.062C70.8692 282.737 64.8183 282.075 58.9 282.075C52.9817 282.075 46.8425 282.737 40.4825 284.062C34.0342 285.387 28.0275 287.419 22.4625 290.157C16.8975 292.807 12.3925 296.208 8.9475 300.36C5.50249 304.511 3.77999 309.458 3.77999 315.2V336.267H111.635ZM202 249.002H201.47V219.852H3.77999V249.002H3.24998V146.844H3.77999V178.644H201.47V146.844H202V249.002ZM3.24998 137.975H201.47V107.235H202V164.74H201.47V138.505H3.77999V164.74H3.24998V137.975ZM3.24998 -24.7352H3.77999V3.0898H204.65V3.6198L3.24998 138.24L3.24998 89.2148L134.557 3.6198H3.77999V34.0948H3.24998V-24.7352Z" fill="#19383D"/>
<path d="M8 213V185.52H29.08V191.12H15.16V197.04H27.4V202.52H15.16V213H8ZM34.825 213V185.52H50.785C52.8117 185.52 54.505 185.907 55.865 186.68C57.225 187.427 58.2383 188.467 58.905 189.8C59.5983 191.107 59.945 192.573 59.945 194.2C59.945 195.96 59.5317 197.533 58.705 198.92C57.905 200.28 56.7717 201.347 55.305 202.12L60.825 213H52.825L48.265 203.32H41.985V213H34.825ZM41.985 198H49.385C50.3717 198 51.1583 197.68 51.745 197.04C52.3583 196.373 52.665 195.493 52.665 194.4C52.665 193.68 52.5317 193.067 52.265 192.56C51.9983 192.053 51.625 191.667 51.145 191.4C50.665 191.107 50.0783 190.96 49.385 190.96H41.985V198ZM66.105 213V185.52H88.785V191.12H73.265V196.28H86.825V201.76H73.265V207.4H89.065V213H66.105ZM95.1937 213V185.52H106.674C109.66 185.52 112.18 186.013 114.234 187C116.314 187.987 117.887 189.493 118.954 191.52C120.047 193.52 120.594 196.093 120.594 199.24C120.594 202.36 120.047 204.947 118.954 207C117.887 209.027 116.314 210.533 114.234 211.52C112.18 212.507 109.66 213 106.674 213H95.1937ZM102.354 207.4H106.594C107.714 207.4 108.687 207.24 109.514 206.92C110.34 206.6 111.034 206.133 111.594 205.52C112.154 204.907 112.567 204.147 112.834 203.24C113.1 202.333 113.234 201.293 113.234 200.12V198.44C113.234 197.24 113.1 196.187 112.834 195.28C112.567 194.373 112.154 193.613 111.594 193C111.034 192.387 110.34 191.92 109.514 191.6C108.687 191.28 107.714 191.12 106.594 191.12H102.354V207.4ZM126.589 213V185.52H142.549C144.576 185.52 146.269 185.907 147.629 186.68C148.989 187.427 150.002 188.467 150.669 189.8C151.362 191.107 151.709 192.573 151.709 194.2C151.709 195.96 151.296 197.533 150.469 198.92C149.669 200.28 148.536 201.347 147.069 202.12L152.589 213H144.589L140.029 203.32H133.749V213H126.589ZM133.749 198H141.149C142.136 198 142.922 197.68 143.509 197.04C144.122 196.373 144.429 195.493 144.429 194.4C144.429 193.68 144.296 193.067 144.029 192.56C143.762 192.053 143.389 191.667 142.909 191.4C142.429 191.107 141.842 190.96 141.149 190.96H133.749V198ZM157.789 213V185.52H164.949V213H157.789ZM184.793 213.48C181.833 213.48 179.313 212.973 177.233 211.96C175.18 210.92 173.62 209.347 172.553 207.24C171.486 205.133 170.953 202.467 170.953 199.24C170.953 194.493 172.14 190.947 174.513 188.6C176.913 186.227 180.34 185.04 184.793 185.04C187.273 185.04 189.473 185.467 191.393 186.32C193.313 187.147 194.806 188.4 195.873 190.08C196.966 191.733 197.513 193.8 197.513 196.28H190.513C190.513 195.107 190.273 194.107 189.793 193.28C189.34 192.427 188.686 191.773 187.833 191.32C187.006 190.867 185.993 190.64 184.793 190.64C183.3 190.64 182.073 190.947 181.113 191.56C180.153 192.173 179.446 193.053 178.993 194.2C178.54 195.347 178.313 196.733 178.313 198.36V200.16C178.313 201.787 178.54 203.187 178.993 204.36C179.446 205.507 180.14 206.387 181.073 207C182.033 207.587 183.26 207.88 184.753 207.88C186.033 207.88 187.113 207.667 187.993 207.24C188.9 206.813 189.58 206.187 190.033 205.36C190.513 204.507 190.753 203.493 190.753 202.32H197.513C197.513 204.8 196.98 206.867 195.913 208.52C194.873 210.173 193.393 211.413 191.473 212.24C189.58 213.067 187.353 213.48 184.793 213.48Z" fill="#EAE5C7"/>
</svg>
